<?xml version="1.0" ?><svg xmlns="http://www.w3.org/2000/svg" id="Layer_1" data-name="Layer 1" viewBox="0 0 50 50"><title/><path d="M17.78,39.42a.5.5,0,0,1-.43-.25L8.85,24.45A.5.5,0,0,1,9,23.77l2.34-1.36a.56.56,0,0,1,.38-.05.53.53,0,0,1,.31.24l8.49,14.71a.51.51,0,0,1,.05.38.47.47,0,0,1-.23.3L18,39.35A.55.55,0,0,1,17.78,39.42ZM10,24.38l8,13.85,1.48-.85-8-13.85Z"/><path d="M19.16,36.38l-.13,0a.52.52,0,0,1-.31-.23l-6.5-11.26a.51.51,0,0,1,.19-.68l1.73-1a.46.46,0,0,1,.38-.05.47.47,0,0,1,.3.23l6.5,11.26a.49.49,0,0,1-.18.68l-1.73,1A.47.47,0,0,1,19.16,36.38ZM13.34,24.8l6,10.4.87-.5-6-10.4Z"/><path d="M22.4,36.94a1.56,1.56,0,0,1-1.35-.78L13.36,22.84a1.52,1.52,0,0,1-.15-1.18,1.49,1.49,0,0,1,.72-.94l12.9-7.45a1.55,1.55,0,0,1,2.12.57l7.69,13.32a1.52,1.52,0,0,1,.15,1.18,1.49,1.49,0,0,1-.72.94l-12.9,7.45A1.54,1.54,0,0,1,22.4,36.94Zm5.2-22.88a.53.53,0,0,0-.27.08l-12.9,7.44a.59.59,0,0,0-.26.34.52.52,0,0,0,.06.42l7.69,13.32a.54.54,0,0,0,.75.2l12.9-7.44a.59.59,0,0,0,.26-.34.52.52,0,0,0-.06-.42h0L28.08,14.34A.55.55,0,0,0,27.6,14.06Z"/><path d="M36.11,27.75l-.13,0a.5.5,0,0,1-.3-.23l-7.5-13a.44.44,0,0,1-.05-.37.52.52,0,0,1,.23-.31l2.87-1.65a3.67,3.67,0,0,1,3.45-.12l6.55,3.22a.49.49,0,0,1,.27.48L41,23.22h0A3.41,3.41,0,0,1,39.34,26l-3,1.72A.55.55,0,0,1,36.11,27.75ZM29.29,14.44l7,12.12,2.55-1.47A2.4,2.4,0,0,0,40,23.16L40.49,16,34.24,13a2.69,2.69,0,0,0-2.51.08Zm11.25,8.75h0Z"/></svg>